<?xml version="1.0" encoding="UTF-8"?>
<svg id="Layer_2" data-name="Layer 2" xmlns="http://www.w3.org/2000/svg" xmlns:xlink="http://www.w3.org/1999/xlink" viewBox="0 0 1320.04 221.16">
  <defs>
    <style>
      .cls-1 {
        fill: #1e1f1c;
      }

      .cls-2 {
        clip-path: url(#clippath);
      }
    </style>
    <clipPath id="clippath">
      <path id="WEqCQ9-2" data-name="WEqCQ9" class="cls-1" d="M563.99,147.38c9.67,49.24,77.74,48.38,87.66,0h35.57c-10.63,93.41-150.55,94.93-160.08,0h36.84ZM876.51,106.18c1.92.31,5.18-7.28,8.29-9.62,14.03-10.56,38.45-5.01,46.15,11,1.52,3.16,2.19,10.8,4.83,11.69l82.38.15,3.28-1.8,29.17-30.54,75.31-.92c11.79-10.3,22.23-21.74,33.55-32.51l101.17-.31c5.07,17.5,26.66,1.82,16.2-7.04-6.84-5.8-12.53,1.32-18.5,2.05l-101.41.23-33.55,32.51-75.31.92c-10.09,10.78-22.01,20.3-30.78,32.1l-48.01.27c-5.2-67.34-111.32-73.21-127.06-8.88M653.32,73.92c-45.2-30.57-112.21-9.81-123.64,45.5h36.21c16.84-31.63,52.13-36.15,76.24-8.91,1.95,2.2,3.99,7.64,4.44,7.64h38.11c-2.75-17.25-17.06-34.55-31.36-44.23ZM407.72,143.57l23.04,68.43,48.79.26,25.99-68.69h-38.11c-2.76,10.51-5.94,21.37-9.84,31.51-.52,1.36.4,3.61-2.22,2.8-1.72-.53-8.84-30.12-10.81-34.31h-36.84ZM699.93,0v119.43h39.39V0h-39.39ZM361.98,119.43v-56.54c0-.39,1.61-.97,1.27-1.91h-39.39v51.15c0,3.2-7.47,2.21-9.48,2.15-8.68-.23-30.02,1.77-36.64-.2s-26.72-30.64-34.83-32.5c-22.73.85-45.42,1.73-68.08-.53-17.53-14.55-30.55-34.34-48.81-47.75l-106.5-.17c-2.58.04-2.17-2.96-4.44-4.49-13.83-9.33-22.98,15.78-5.49,16.71,7.12.38,7.39-6.52,11.23-7.26l102.65.28c17.72,14.58,31.82,33.41,49.51,48.32,23.06,2.38,46.68,0,69.93,1.22l32.02,31.5h87.03ZM794.58,48.28c-17.3,22.77-36.14,44.52-53.37,67.33-.96,1.27-2.47,1.58-1.9,3.82h42.56l53.25-66.17,2.01-4.97h-42.56ZM379.77,60.98l19.06,58.44h39.39l-17.79-58.44h-40.66ZM492.84,59.71l-17.79,59.71h38.11l19.06-59.71h-39.39ZM343.44,45.61c30.68-.97,25.32-48.29-3.37-44.07-27.35,4.02-25.2,44.97,3.37,44.07ZM1273.27,205.42c-2.38,1.48-2.34,4.82-5.98,4.3l-124.28-.4c-8.82-2.89-26.03-28.05-32.33-29.92-10.11-3-37.77,2.86-46.09-.92l-33.06-32.37h-315.08c-4.73.27-10.73,0-16.52.54v68.06h39.39v-62.25c19.77,19.35,36.22,42.09,55.27,62.25h46.37l-52.09-62.25h143.57c-.49,37.23-61.85,48.15-64.8,6.35h-36.21c-2.07,0-.69,10.86-.31,13.02,8.31,47.42,69.48,58.19,102.58,28.91l-1.26,13.98h38.11v-62.25h60.35c8.39,5.62,24.96,28.92,32.72,32.07,10.39,4.22,34.95-2,45.79,1.22,5.89,1.75,22.67,25.73,31.02,28.69,30.83.83,61.69-.15,92.53.22,10.97.13,22.06-.2,32.95-.01,7.04.12,5.78,6.84,13.97,6.5,14.5-.6,9.02-25.47-6.62-15.73ZM868.36,139.98c.03-.78.22-3.52,2.37-5.97,2.21-2.52,5.01-3.03,5.76-3.14h176.63c9.78-4.24,22.01-21.05,31.39-27.69,17.84-2.43,40.93,2.39,58.11-.33,6.77-1.07,9.29-8.82,13.44-10.7l54.23-.68c21.17-2.29,49.22,3.17,69.54-.05,7.24-1.15,11.02-11.32,16.65-12.6,8.63-1.96,5.09,5.73,10.35,7.34,16.45,5.03,18.7-20.96.05-15.96-1.86.5-3.33,2.72-5.63,3.25-3.02.7-6.32-.43-9.27.89-2.5,1.12-8.71,11.43-13.38,12.04l-67.32.04c-.07-.01-.13-.04-.2-.06-1.28-.04-2.55-.07-3.83-.09-.97.09-1.94.15-2.91.19-1.72.22-3.38.21-5.12.17-3.85-.09-7.7-.1-11.55-.1-9.2,1.41-25.28-2.25-33.29.13-3.12.93-10.03,10.33-14.26,11.15l-58.39.05c-11.34,7.46-19.21,20.43-30.55,27.89h-205.71c-1.56.28-3.86.89-6.34,2.31-2.79,1.6-5.32,5.82-6.36,7.12-37.34.18-75.32.2-112.87.38-1.26-.19.24-9.29-1.46-9.59-11.21.17-61.78.49-68.19.59-.2.17-.15,2.64.12,2.64l16.11.17,49.19-.52c.22,1.23-.28,9.18.13,10.55q4.85.69,9.54.36M1046.78,133.39h1.59M563.98,129.18c-13.76-.11-27.56.1-41.34.05-93.08-.37-187.12.22-280.65-.13-8.08-1.28-22.84-22.81-30.82-27.62-15.47-2.43-37.08,2.38-51.77-.32-6.29-1.16-10.73-10.47-15.34-11.34H53.85c-2.58.02-2.68-3-4.08-3.87-16.59-10.35-23.39,14.57-8.48,16.52,8.15,1.06,7.7-5,11.98-6.93,4.17-1.89,39.89-.8,47.67-.72,9.64.1,19.32.89,29.11,1.39,3.61.18,10.98-1.34,12.62-1.03,2.5.48,7.62,8.43,10.24,9.93,7.95,4.56,44.36-1.15,55.71,1.46,10.99,8.11,18.87,22.35,31.39,27.69,2.48-1.65,135.74-.2,146.11,0l173.49.07c3.62.07,4.95-1.6,4.38-5.14ZM245.09,143.57c-12.32,10.75-22.55,24.14-34.97,34.27l-77.51.05h-21.54c-27.56-2.8-62.35,3.65-89.02.04-4.66-.63-4.53-3.16-7.85-4.86-14.08-7.17-20.58,17.02-4.75,17.59,7.78.28,7.97-7.42,11.35-7.82h90.29s0,0,20.17,1.31c7.51.49,69.12.88,81.4-1.23,12.63-9.23,22.41-22.61,34.59-32.74,25.47-1.33,51.32-.08,76.6.35v61.64h38.11v-68.61h-116.89Z"/>
    </clipPath>
  </defs>
  <g id="Layer_1-2" data-name="Layer 1">
    <g>
      <path id="WEqCQ9" class="cls-1" d="M563.99,147.38c9.67,49.24,77.74,48.38,87.66,0h35.57c-10.63,93.41-150.55,94.93-160.08,0h36.84ZM876.51,106.18c1.92.31,5.18-7.28,8.29-9.62,14.03-10.56,38.45-5.01,46.15,11,1.52,3.16,2.19,10.8,4.83,11.69l82.38.15,3.28-1.8,29.17-30.54,75.31-.92c11.79-10.3,22.23-21.74,33.55-32.51l101.17-.31c5.07,17.5,26.66,1.82,16.2-7.04-6.84-5.8-12.53,1.32-18.5,2.05l-101.41.23-33.55,32.51-75.31.92c-10.09,10.78-22.01,20.3-30.78,32.1l-48.01.27c-5.2-67.34-111.32-73.21-127.06-8.88M653.32,73.92c-45.2-30.57-112.21-9.81-123.64,45.5h36.21c16.84-31.63,52.13-36.15,76.24-8.91,1.95,2.2,3.99,7.64,4.44,7.64h38.11c-2.75-17.25-17.06-34.55-31.36-44.23ZM407.72,143.57l23.04,68.43,48.79.26,25.99-68.69h-38.11c-2.76,10.51-5.94,21.37-9.84,31.51-.52,1.36.4,3.61-2.22,2.8-1.72-.53-8.84-30.12-10.81-34.31h-36.84ZM699.93,0v119.43h39.39V0h-39.39ZM361.98,119.43v-56.54c0-.39,1.61-.97,1.27-1.91h-39.39v51.15c0,3.2-7.47,2.21-9.48,2.15-8.68-.23-30.02,1.77-36.64-.2s-26.72-30.64-34.83-32.5c-22.73.85-45.42,1.73-68.08-.53-17.53-14.55-30.55-34.34-48.81-47.75l-106.5-.17c-2.58.04-2.17-2.96-4.44-4.49-13.83-9.33-22.98,15.78-5.49,16.71,7.12.38,7.39-6.52,11.23-7.26l102.65.28c17.72,14.58,31.82,33.41,49.51,48.32,23.06,2.38,46.68,0,69.93,1.22l32.02,31.5h87.03ZM794.58,48.28c-17.3,22.77-36.14,44.52-53.37,67.33-.96,1.27-2.47,1.58-1.9,3.82h42.56l53.25-66.17,2.01-4.97h-42.56ZM379.77,60.98l19.06,58.44h39.39l-17.79-58.44h-40.66ZM492.84,59.71l-17.79,59.71h38.11l19.06-59.71h-39.39ZM343.44,45.61c30.68-.97,25.32-48.29-3.37-44.07-27.35,4.02-25.2,44.97,3.37,44.07ZM1273.27,205.42c-2.38,1.48-2.34,4.82-5.98,4.3l-124.28-.4c-8.82-2.89-26.03-28.05-32.33-29.92-10.11-3-37.77,2.86-46.09-.92l-33.06-32.37h-315.08c-4.73.27-10.73,0-16.52.54v68.06h39.39v-62.25c19.77,19.35,36.22,42.09,55.27,62.25h46.37l-52.09-62.25h143.57c-.49,37.23-61.85,48.15-64.8,6.35h-36.21c-2.07,0-.69,10.86-.31,13.02,8.31,47.42,69.48,58.19,102.58,28.91l-1.26,13.98h38.11v-62.25h60.35c8.39,5.62,24.96,28.92,32.72,32.07,10.39,4.22,34.95-2,45.79,1.22,5.89,1.75,22.67,25.73,31.02,28.69,30.83.83,61.69-.15,92.53.22,10.97.13,22.06-.2,32.95-.01,7.04.12,5.78,6.84,13.97,6.5,14.5-.6,9.02-25.47-6.62-15.73ZM868.36,139.98c.03-.78.22-3.52,2.37-5.97,2.21-2.52,5.01-3.03,5.76-3.14h176.63c9.78-4.24,22.01-21.05,31.39-27.69,17.84-2.43,40.93,2.39,58.11-.33,6.77-1.07,9.29-8.82,13.44-10.7l54.23-.68c21.17-2.29,49.22,3.17,69.54-.05,7.24-1.15,11.02-11.32,16.65-12.6,8.63-1.96,5.09,5.73,10.35,7.34,16.45,5.03,18.7-20.96.05-15.96-1.86.5-3.33,2.72-5.63,3.25-3.02.7-6.32-.43-9.27.89-2.5,1.12-8.71,11.43-13.38,12.04l-67.32.04c-.07-.01-.13-.04-.2-.06-1.28-.04-2.55-.07-3.83-.09-.97.09-1.94.15-2.91.19-1.72.22-3.38.21-5.12.17-3.85-.09-7.7-.1-11.55-.1-9.2,1.41-25.28-2.25-33.29.13-3.12.93-10.03,10.33-14.26,11.15l-58.39.05c-11.34,7.46-19.21,20.43-30.55,27.89h-205.71c-1.56.28-3.86.89-6.34,2.31-2.79,1.6-5.32,5.82-6.36,7.12-37.34.18-75.32.2-112.87.38-1.26-.19.24-9.29-1.46-9.59-11.21.17-61.78.49-68.19.59-.2.17-.15,2.64.12,2.64l16.11.17,49.19-.52c.22,1.23-.28,9.18.13,10.55q4.85.69,9.54.36M1046.78,133.39h1.59M563.98,129.18c-13.76-.11-27.56.1-41.34.05-93.08-.37-187.12.22-280.65-.13-8.08-1.28-22.84-22.81-30.82-27.62-15.47-2.43-37.08,2.38-51.77-.32-6.29-1.16-10.73-10.47-15.34-11.34H53.85c-2.58.02-2.68-3-4.08-3.87-16.59-10.35-23.39,14.57-8.48,16.52,8.15,1.06,7.7-5,11.98-6.93,4.17-1.89,39.89-.8,47.67-.72,9.64.1,19.32.89,29.11,1.39,3.61.18,10.98-1.34,12.62-1.03,2.5.48,7.62,8.43,10.24,9.93,7.95,4.56,44.36-1.15,55.71,1.46,10.99,8.11,18.87,22.35,31.39,27.69,2.48-1.65,135.74-.2,146.11,0l173.49.07c3.62.07,4.95-1.6,4.38-5.14ZM245.09,143.57c-12.32,10.75-22.55,24.14-34.97,34.27l-77.51.05h-21.54c-27.56-2.8-62.35,3.65-89.02.04-4.66-.63-4.53-3.16-7.85-4.86-14.08-7.17-20.58,17.02-4.75,17.59,7.78.28,7.97-7.42,11.35-7.82h90.29s0,0,20.17,1.31c7.51.49,69.12.88,81.4-1.23,12.63-9.23,22.41-22.61,34.59-32.74,25.47-1.33,51.32-.08,76.6.35v61.64h38.11v-68.61h-116.89Z"/>
      <g class="cls-2">
        <rect class="cls-1" x="-266.5" y="-372.44" width="1853.03" height="935.33"/>
      </g>
    </g>
  </g>
</svg>