<?xml version="1.0" encoding="UTF-8"?>
<svg id="Layer_2" data-name="Layer 2" xmlns="http://www.w3.org/2000/svg" viewBox="0 0 1920 1074.96">
  <defs>
    <style>
      .cls-1 {
        fill: #5b5fc2;
      }

      .cls-2 {
        fill: #e9cb4c;
      }

      .cls-3 {
        fill: #bc727d;
      }

      .cls-4 {
        fill: #a26b89;
      }

      .cls-5 {
        fill: #c9735d;
      }

      .cls-6 {
        fill: #275bf2;
      }

      .cls-7 {
        fill: #4b5dd3;
      }

      .cls-8 {
        fill: #e7ca4c;
      }

      .cls-9 {
        fill: #3a5ce0;
      }

      .cls-10 {
        fill: #dd9152;
      }

      .cls-11 {
        fill: #265bf2;
      }

      .cls-12 {
        fill: #7965b2;
      }

      .cls-13 {
        fill: #c47462;
      }

      .cls-14 {
        fill: #3f5cda;
      }

      .cls-15 {
        fill: #6862bd;
      }

      .cls-16 {
        fill: #d8754b;
      }

      .cls-17 {
        fill: #a96b7c;
      }

      .cls-18 {
        fill: #db7b52;
      }

      .cls-19 {
        fill: #d88b50;
      }

      .cls-20 {
        fill: #ecce4e;
      }

      .cls-21 {
        fill: #8665a5;
      }

      .cls-22 {
        fill: #dc9252;
      }

      .cls-23 {
        fill: #cd7760;
      }

      .cls-24 {
        fill: #9c6a8e;
      }

      .cls-25 {
        fill: #d97851;
      }

      .cls-26 {
        fill: #cc7462;
      }

      .cls-27 {
        fill: #b46e78;
      }

      .cls-28 {
        fill: #3959da;
      }

      .cls-29 {
        fill: #405cd9;
      }

      .cls-30 {
        fill: #7863a9;
      }

      .cls-31 {
        fill: #e6be4d;
      }

      .cls-32 {
        fill: #e9c54e;
      }

      .cls-33 {
        fill: #535fcd;
      }

      .cls-34 {
        fill: #b46e75;
      }

      .cls-35 {
        fill: #db9150;
      }

      .cls-36 {
        fill: #265bf3;
      }

      .cls-37 {
        fill: #e6bf4e;
      }

      .cls-38 {
        fill: #8777e0;
      }

      .cls-39 {
        fill: #cf7355;
      }

      .cls-40 {
        fill: #275af1;
      }

      .cls-41 {
        fill: #6761bb;
      }

      .cls-42 {
        fill: #6461c0;
      }

      .cls-43 {
        fill: #af6e7e;
      }

      .cls-44 {
        fill: #a26b8b;
      }

      .cls-45 {
        fill: #e5ba4e;
      }

      .cls-46 {
        fill: #e7c64c;
      }

      .cls-47 {
        fill: #8968a4;
      }

      .cls-48 {
        fill: #d67d51;
      }

      .cls-49 {
        fill: #cf7567;
      }

      .cls-50 {
        fill: #4e5dd0;
      }

      .cls-51 {
        fill: #d8784d;
      }

      .cls-52 {
        fill: #e5cd4c;
      }

      .cls-53 {
        fill: #e0ad4e;
      }

      .cls-54 {
        fill: #e7c54b;
      }

      .cls-55 {
        fill: #255af3;
      }

      .cls-56 {
        fill: #da7d4e;
      }

      .cls-57 {
        fill: #dfa950;
      }

      .cls-58 {
        fill: #355be2;
      }

      .cls-59 {
        fill: #e2b24e;
      }

      .cls-60 {
        fill: #565fcb;
      }

      .cls-61 {
        fill: #4e5dce;
      }

      .cls-62 {
        fill: #966a9b;
      }

      .cls-63 {
        fill: #b46f7b;
      }

      .cls-64 {
        fill: #da7c4f;
      }

      .cls-65 {
        fill: #d8974f;
      }

      .cls-66 {
        fill: #7d64ab;
      }

      .cls-67 {
        fill: #e3b74e;
      }

      .cls-68 {
        fill: #cd7259;
      }

      .cls-69 {
        fill: #495dd4;
      }

      .cls-70 {
        fill: #6e62bb;
      }

      .cls-71 {
        fill: #e0a850;
      }

      .cls-72 {
        fill: #dc8f52;
      }

      .cls-73 {
        fill: #d87c51;
      }

      .cls-74 {
        fill: #465dd9;
      }

      .cls-75 {
        fill: #e2ae4e;
      }

      .cls-76 {
        fill: #605fc3;
      }

      .cls-77 {
        fill: #8c6496;
      }

      .cls-78 {
        fill: #d67c52;
      }

      .cls-79 {
        fill: #db9450;
      }

      .cls-80 {
        fill: #e4b14f;
      }

      .cls-81 {
        fill: #5b5ebf;
      }

      .cls-82 {
        fill: #ebcb4d;
      }

      .cls-83 {
        fill: #cf735b;
      }

      .cls-84 {
        fill: #c67365;
      }

      .cls-85 {
        fill: #295aef;
      }

      .cls-86 {
        fill: #de8551;
      }

      .cls-87 {
        fill: #dda24f;
      }

      .cls-88 {
        fill: #2f5ae6;
      }

      .cls-89 {
        fill: #8868aa;
      }

      .cls-90 {
        fill: #a86d8a;
      }

      .cls-91 {
        fill: #e7c24d;
      }

      .cls-92 {
        fill: #275cf2;
      }

      .cls-93 {
        fill: #dc9d50;
      }

      .cls-94 {
        fill: #595fc5;
      }

      .cls-95 {
        fill: #8466a9;
      }

      .cls-96 {
        fill: #d87a4d;
      }

      .cls-97 {
        fill: #b77074;
      }
    </style>
  </defs>
  <g id="Layer_1-2" data-name="Layer 1">
    <g id="_9RL5kN" data-name="9RL5kN">
      <g>
        <path class="cls-6" d="M1920,382.99v8.79l-61.57.27c-5.77,1.3-25.19,23.4-32.81,28.31-5.19,3.34-12.33,4.06-18.69,4.45-46.92,2.87-97.23-2.65-144.49.44-9.8,7.02-18.63,15.2-27.47,23.12-9.59,8.6-32.05,33.64-44.64,35.49-62.33,3.46-129.21-3.7-191.01.2-3.21.2-5.4.69-8.07,2.26-5.07,1.19-2.81-3.89,1.69-4.77-3.13-.6-4.53-1.94-4.19-4.02,3.18-1.33,7.06-1.99,10.58-2.24h189.98c6.83-1.12,13.05-10.42,17.51-14.3,13.77-11.96,32.52-31.47,46.9-41.2,8.9-6.03,16.49-3.32,26.89-3.83,44.35-2.19,89.13-.57,133.68-1.16,19.2-5.91,26.15-30.17,47.53-31.85,18.5-1.46,39.42,1.17,58.18.04Z"/>
        <path class="cls-92" d="M1920,297.25v8.79l-135.37.23-55.85,49.82c-3.21,2.55-7.61,3.7-11.86,3.86l-156.04.18c-17.59,13.14-31.79,29.25-47.74,43.76-11.03,10.04-23.32,24.29-39.97,25.31l-94.42-.04,1.03-2.66c5.33,0,9.99-1.3,13.97-3.93-2.72,2.94-17.39,2.87-21.99,2.2l-1.76-2.2-1.48-.84c35.63-.78,71.54-1.24,107.73-1.35,3.81-.8,4.05-.4,7.53-2.73,11.96-8,26.32-25.16,37.44-35.23,8.85-8.02,21.15-20.28,30.62-26.93,2.44-1.72,4.69-3.41,7.82-4.12l158.39-.31c2.86-.11,4.35-1.84,6.35-3.21,17.37-11.95,32.78-35.2,50.56-46.77,2.4-1.56,4.46-2.77,7.46-3.33l137.57-.49Z"/>
        <path class="cls-6" d="M1920,136.76v8.79c-28.27-1.44-58.93,1.91-86.92.04-2.94-.2-8.18-.76-10.87-1.43-19.13-4.75-28.28-29.55-46.72-31.47l-145.83-.37c-20.23-10.5-34.51-29.47-51.54-43.72l-6.22-2.22c-33.17,1.94-69.84-2.49-102.58-.02-1.92.15-3.51.27-5.38.77-7.59,2.03-27.65,23.87-34.56,30.07-9.43,8.47-20.17,20.92-33.14,23.07-3.01.42-10.79.1-6.38-3.19,3.16.2,13.77.42,9.13-3.23l1-2.38,51.22-47.84c4.94-3.26,10.68-5.58,16.86-6.06,33.8-2.67,72.05,2.11,106.33.02,4.07.22,7.51,2.81,10.61,4.96,14,9.71,28.3,28,41.83,39.07,8.46,6.33,28.49,2.24,38.73,2.12,13.82-.16,27.68,1.1,41.25,1.19,21.97.14,54.5-2.5,74.94.05,17.58,2.19,27.64,30.03,51.31,31.82,27.74,2.1,58.83-1.64,86.92-.04Z"/>
        <path class="cls-92" d="M1920,883.15v7.69l-186.61.23c-3.78.75-12.67,9.43-15.92,12.38-17.61,15.98-34.01,33.16-51.3,49.42-5.09,3.72-15.16,4.69-21.74,5.07-50.37,2.88-104.07-2.44-154.79.19l-4.66,2.49-56.22,50.04c-2.93,1.74-3.71-.77-1.83-3.24l13.63-11.53c-2.87-.95-3.89-2.25-3.05-3.92,12.9-11.6,26.62-28.14,41.22-37.95,3.35-2.25,6.85-3.77,10.95-4.66,54.87-1.27,110.14,1.25,164.8-1.28,13.25-10.22,25.77-21.38,38.07-32.48,9.14-8.26,27.93-30.84,39.9-33.07,62.61-1.81,125.06.73,187.57.61Z"/>
        <path class="cls-92" d="M1920,697.38v7.69l-129.08.26c-13.95,4.4-23.87,24.58-39.05,26.12-40.21,4.08-87.91-3.97-128.7,1.15-14.43,1.81-33.39-4.17-46.95.48-4.49,1.54-21.63,17.79-26.26,21.98-20.51,18.56-39.53,38.51-60.58,56.65-6.11,3.76-10.05,3.02-16.88,3.29-1.31.38-2.62.68-3.93.69-26.4.18-52.86.11-79.26-.11-1.66-.01-4.38-.08-4.31-1.68.11-.87.47-2.18,1.17-2.2,25.44-.68,55.67-1.25,80.92,0,4.3-.73,6.93,0,7.91,2.2-3.22-1.45-.89-5.42,2.5-5.5l-1.89,2.2h-77.85l-1.51-2.2-1.48-.84c27.7-.79,55.69-1.24,83.98-1.35,6.03-1.56,8.29-4.41,12.53-8.22,22.98-20.61,46.69-47.87,70.57-66.56,6.69-5.24,13.62-7.1,22.48-7.71,33.51-2.31,72.08.62,106.35.08,16.87-.27,41.59.42,57.45-1.14s23.75-21.31,38.83-25.22l133.04-.07Z"/>
        <path class="cls-45" d="M336.25,242.28c-2.09,2.35-5.48,1.02-10.17-3.98-5.84-6.47-14.64-12.15-3.12-.97,11.76,11.4,21.9,12.41,39.87,12.33,42.33-.23,84.39-.28,126.2-.14l-.29,2.65-150.07-.49c-25.31-11.67-40.45-37.38-63.43-51.94-10.8-3.66-26.02-.43-37.07-.29-36.99.46-74.03-.65-111.02.21-19.77,8.31-28.88,32.73-52.79,32.73H14.37c-.41,0-2.1,1.02-3.7,1.14-3.53.25-7.15-.23-10.68-.04v-8.79l78.82-.49c17.34-5.91,30.32-31.21,49.41-33.49,46.05,3.01,99.74-4.36,144.89-.1,3.83.36,7.8,1.52,10.65,3.82l52.47,47.85Z"/>
        <path class="cls-37" d="M525,439.05c1,2.58-.46,3.32-3.32,3.5-79.88.28-159.64-.04-239.29-.95-11.01-4.39-2.2,2.24,4.61,1.84,73.68-.69,147.33-.16,220.94,1.59l18.31,1.71-243.01-.1c-20.76-2.51-32.88-36.46-58.82-38.42-18.04-1.36-59.61,3.5-73.49-2.43-9.97-4.26-19.2-19.2-29.31-24.79l-121.62-.23v-8.79l115.67-.04c20.01-1.01,28.27,25.31,44.26,28.13,20.89,3.69,61.72-4.21,79.11,2.98,12.92,5.34,26.97,25.23,39.08,32.69,2.72,1.68,5.59,2.71,8.87,3.19l238.01.1Z"/>
        <path class="cls-55" d="M1920,66.4l-82.83-.26c-16.26-2.39-36.6-31.87-50.85-39.92l-74.19-.51c-10.33,17.68-36.63,2-23.41-12.65,6.71-7.43,19.03-4.01,23.41,3.89,22.86,1.87,51.18-2.61,73.38.08,11.96,1.45,24.75,18.2,33.2,25.76,3.05,2.73,13.09,12.37,16.22,13.22l85.07.49v9.89Z"/>
        <path class="cls-31" d="M213.75,911.73c42.88-1.16,85.88-2.17,128.75,0,2.48.35,5.09.18,7.5,1.1.96,3.14-1.79,3.85-8.27,2.14-26.75-.61-53.48-.51-80.21.31,27.45-.65,54.86-.44,82.24.62,4.88.84,4.72,5.16,1.24,3.53h-57.5c-41.35,0-82.74.21-124.09-.25-4-.71-12.11-5.99-15.27-8.55-15.96-12.95-30.3-28.7-45.6-42.34-7.46-6.65-13.08-13.98-24.36-14.86-24.81-1.92-53.17,1.07-78.18,1.14v-8.79c26.41,1.57,55.87-2.09,81.93-.04,7.17.56,10.87,2.73,16.23,6.61,17.77,12.88,37.24,35.24,54.32,50.07,2.87,2.49,5.97,5.33,9.63,6.92,10.26,4.44,38.7,2.31,51.65,2.4Z"/>
        <path class="cls-91" d="M196.25,799.61c26.8.58,54.3.94,82.5,1.1h2.5c2.17,3.08-2.51,3.46-5.65,3.34,4.6-.63,10.88,4.61,4.4,4.36l-112.83-.26c-13.45-1.98-34.35-26.46-44.64-35.49-8.05-7.07-12.35-11.89-24.35-12.66-24.57-1.57-60.26-1.12-85.11,0-4.35.2-8.58,1.82-13.07,1.14v-8.79l107.84.25c22.26,10.42,35.9,31.83,55.44,45.78,1.11.67,2.34.99,3.66,1.18,9.52,1.31,20.01.04,29.3.06Z"/>
        <path class="cls-32" d="M118.75,500.61c57.15.86,115.49,1.23,175,1.1h2.5c.91,3.45-3.15,4.51-12.17,3.18,4.58-.27,17.45,1.33,10.92,5.61-2.23-.63-4.45-1.03-6.81-1.14-57.72-2.77-116.97,3.52-174.43-1.62-15.59-7.69-25.27-23.24-39.69-32.15l-74.07-.27v-8.79c18.89.62,38.04-.82,56.93-.05,4.63.19,17.49.65,20.89,1.41,6.49,1.46,27,25.18,35.3,30.52,2.23,1.44,3.16,1.55,5.63,2.19Z"/>
        <path class="cls-2" d="M248.75,990.88c2.74,3.52-2.72,3.66-6.1,3.34,4.85-.24,11.52,4.31,4.85,4.36h-2.5c-43.38.85-86.71.48-130-1.1-5.44-.9-6.47-.56-11.28-3.82-18.04-12.22-32.61-33.1-50.87-45.4l-52.85-.24v-8.79c16.36,1.22,37.1-2.2,52.81,1.38,13.94,3.17,31.59,24.92,42.16,34.38,3.58,3.21,14.51,13.8,18.42,14.58,41.4,2.58,86.3-2.63,127.29.19,2.36.16,5.87.57,8.07,1.14Z"/>
        <path class="cls-20" d="M173.75,576.46c-1.28,2.74-4.43,3.88-9.44,3.42-23.7-.07,2.01,1.2,10.43,1.21,3.46,1.17,4.34,4.03.26,4.17l-175-1.1v-8.79l164.42-.05c2.7.65,6.92.53,9.33,1.14Z"/>
        <path class="cls-54" d="M0,1050.24h80.64c3.56-.58,3.69-4.9,8.05-6.1,23.96-6.61,25.97,23.28,6.96,23.52-10.71.13-12.47-8.31-14.03-8.64l-81.62.02v-8.79Z"/>
        <path class="cls-8" d="M175,31.23c-.52,1.78-2.15,2.37-4.9,1.79,2.13,1.99,1.81,3.53-1.35,3.7-2.67-1.58-4.86-2.03-8.07-2.26-21.85-1.55-44.56,1.13-66.25,1.21-31.53.12-62.93-1.43-94.43-1.15v-6.6l168.79.52,6.21,2.78Z"/>
        <path class="cls-46" d="M135,320.33c1.81,4.54-4.33,2.01-6.81-1.04.71,2.3-.38,3.32-3.19,3.24-7.8-7-14.76-17.19-27.07-17.51-3.09-.08-5.6,1.08-8.51,1.07-29.81-.06-59.63-.06-89.42-.05v-8.79l101.52.31c14.79,1.16,23.5,14.39,33.48,22.77Z"/>
        <path class="cls-52" d="M136.25,662.2c.56,3.05-3.05,3.73-10.85,2.05,4.98-.66,12.46,3.28,5.85,4.55H0v-8.79c38.59,1.24,78.48-1.64,116.93-.05,5.95.25,13.34,1.43,19.32,2.24Z"/>
        <path class="cls-40" d="M1405,745.74c-4.5.36-3.26-2.52,3.69-8.66l-3.69-2.33c30.61-27.17,59.45-59.96,91.88-85.74,6.02-4.78,15.76-7.19,23.7-7.74l136.03-.19c17.26-8.54,32.49-35.34,52.78-37.13,26.89-2.38,61.26.06,88.69-.07,8.41-.04,49.1,1.27,53.21-.49,1.74-.75,2.5-4.41,6.25-5.42,31.05-8.41,19.75,41.33-7.56,15.33l-143.03-.51c-2.49.09-3.92,1.48-5.72,2.66-11.8,7.71-23.92,24.32-35.59,31.36-9.57,5.78-47.62,2.99-61.31,3.24-26.59.49-53.46-.24-79.89,0-2.61.02-11.75,1.2-14.24,1.86-4.6,1.23-25.22,20.56-30.23,25.08-23.55,21.25-49.46,50.37-74.97,68.73Z"/>
        <path class="cls-36" d="M1451.25,201.61c18.29-4.11,32.57-34.41,50.92-37.11l164.71-.26,10.01,3.29,52.75,47.05,117.28.31c2.62-.27,3.71-5.03,8.02-6.19,22.01-5.94,25.79,20.62,9.14,23.46-11.79,2.01-14.17-7.86-18.44-8.57l-118.17-.51c-2.36-.75-4.28-1.98-6.24-3.3-16.94-11.48-32.86-34.48-49.35-44.55-2-1.22-3.58-2.31-6.22-2.22l-161.16.12c-2.4.3-4.34.93-6.37,2.09-15.17,8.69-26.62,33.12-47.49,35.19-12.66,1.25-27.69-.93-40.63,0l-.18-2.47c12.57-1.48,14.37-2.07,5.4-1.76-2.93,0-4.14-1.46-3.69-4.06,13.28.27,26.51.1,39.72-.5Z"/>
        <path class="cls-6" d="M1592.5,880.95c-57.61.73-115.32.95-173.12.66-1.9-1.01-1.51-2.82.46-3.75-3.97-.03-5.58-1.2-4.85-3.5,2.21-.6,4.47-1.1,6.81-1.14l168.55-.19,3.32-1.48c7.69-7.41,15.25-15.31,23.18-22.49,14.37-13.02,32.32-31.83,47.49-42.88,6.43-4.69,10.24-6.02,18.73-6.61,53.01-3.68,111.52,2.79,165.11.1,6.49-.76,6.59-7.33,16.17-6.72,25.4,1.62,5.4,42.42-14.37,16.01-57.5-.63-115.79-1.53-173.21.46-11.99,9.12-23.28,19.18-34.32,29.18-12.72,11.53-28.6,30.37-42.44,39.63-3.48,2.33-3.72,1.93-7.53,2.73Z"/>
        <path class="cls-11" d="M1456.25,570.96c3.18-1.33,7.06-1.99,10.58-2.24l153.24-.45c11.46-8.49,21.98-18.12,32.47-27.51,11.77-10.55,23.54-23.44,35.53-33.61,1.94-1.64,9.37-6.97,11.57-7.41,3.79-.76,18.63-1.34,23.43-1.38,45.25-.45,90.99,2.67,136.38,1.21,7.96-2.72,11.53-9.59,21.44-4.67,13.86,6.88,4.2,27.12-10.95,22.81-5.89-1.67-8.07-8.79-8.87-9.23-.6-.34-12.07-1.14-14.2-1.26-46.46-2.6-96.36,1.49-143.14.51l-4.87,2.31c-22.95,17.93-45.04,46.56-68.82,62.6-3.84,2.59-7.43,3.91-12.23,4.64l-156.55.29c-2.1-1.6-5.25-4.05-5-6.6Z"/>
        <path class="cls-11" d="M1870.45,971.5c9.11-5.69,21.55-5.74,23.2,5.74,2.27,15.81-18.06,18.72-26.13,6.48l-116.64-.31c-10.93,9.05-21.72,18.31-32.16,27.78-13.54,12.27-20.44,26.62-41.8,28.1-35.36,2.45-74.28-1.93-110.02-.01-2.85.48-22.44,17.83-22.8,20.44-.34,2.45,1.49,3.71-.26,7.64-6.26,14.09-31.76,7.28-25.79-9.48,3.53-9.92,14.58-4.67,20.66-7.1,7.51-3.01,16.44-19.69,27.46-19.82,36.02-3.22,76.51,2.58,112-.44,5.43-.46,7.13-1.55,11.22-4.42,17.09-12,32.47-31.31,48.68-44.03,7.77-6.09,11.99-7.1,22.48-7.71,34.1-2,70.76,1.52,105.14.12,3.3.65,3.58-2.24,4.74-2.96Z"/>
        <path class="cls-25" d="M1021.25,425.86c1.85,2.06-.58,3.25-3.09,3.3-9.68.19-19.45.04-29.13-.21.23,1.52,1.42,2.16,3.58,1.89l21.81-.93c4.93-1.22,14.43,2.53,6.84,3.64l-169.05-.29c-22.23-2.87-39.67-36.41-60.41-43.61-64.65.33-129.56-1.02-194.06.68l-5.86,2.54c-16.63,12.06-40.09,43.81-58.12,51.67-8.1,1.17-11.96-2.68-3.75-6.6,19.76-14.18,37.9-39,57.47-52.24,3.1-2.1,6.47-4.07,10.59-3.88,61.76,3.64,130.33-4.68,191.29.07,11.71.91,16.45,4.63,24.42,11.5,7.18,6.18,28.81,29.49,37.11,31.12,56.63,2.84,113.61.64,170.36,1.33Z"/>
        <path class="cls-73" d="M1020,786.42c2.23,2.51-.15,3.31-3.21,3.43-34.17-1.47-68.31-1.55-102.4-.26,32.55,1.47,65.6,2.23,99.14,2.3l1.46,2.22c-61.76.4-123.57-.51-185.34.25-9.44,1.69-38.41,33.25-49.07,40.39-4.36,2.92-6.85,4.01-12.42,4.47-11.29.93-60.26,1.5-69.46-.56-13.63-3.05-29.53-29.75-40.66-31.3-36.42.21-72.9-.5-109.3-.06-11.77,6.6-22.18,15.03-31.25,25.28-1.64,1.35-2.98,2.82-5,4.4-5.48,7.36-12.35,11.75-20.62,13.19-8.59,1.36-19.22.67-28.12,0-3.73-2.81,1.66-3.8,4.67-3.73l1.47-2.4c8.71.28,17.06-.13,25.05-1.23,16.3-14.84,33.21-29.01,50.73-42.5,39.35,0,78.29-.23,116.82-.7,11.6,2.3,26.88,26.61,38.7,31.38,20.44-.68,45.81,2.63,65.71.53,3.51-.37,5.94-1.54,8.71-3.33,15.93-13.89,30.58-32,50.29-41.52,64.68-.92,129.42.37,194.09-.25Z"/>
        <path class="cls-86" d="M822.5,97.18c-1.2,2.76-3.91,2.08-8.13-2.04,1.06,1.74,1.45,2.92-.62,4.24-5.03-2.9-9.31-8.23-15.6-8.82l-239.76.26c-32.21,23.86-59.35,53.06-89.64,78.91-8.71,3.27-53.1,5.28-58.86,2.04-1.45-.82-3-5.17-1.47-6.32l9.69,1.74c13.91-1.48,27.98-1.91,42.22-1.3l-1.58-.54c10.34-6.48,19.82-15.47,28.78-23.61,19.03-17.28,36.74-37.13,56.85-53.33,6.61-5.33,13.72-6.17,22.43-6.66,75.2-4.26,155.57,3.3,231.31.05,10.38.99,18.05,8.78,24.37,15.39Z"/>
        <path class="cls-56" d="M883.75,607.24c2.29,2.23-.12,3.35-3.18,2.03-7.26-7.07-14.96-13.75-23.1-20.06-3.35-4.06-19.14-5.4-7.82-2.89,7.19,2.28,40.84,31.09,40.81,34.58,0,1.02-1.65,1.21-2.96.63-9.15-5.2-31.39-30.26-38.39-31.65l-141.01-.26c-2.64-.09-4.22,1-6.22,2.22-19.73,12.05-38.28,39.09-58.09,52.25-5.5,3.65-12.61,4.56-19.35,4.97-45.64,2.79-101.07.48-147.57-.03-2.11-.02-5.56.7-6.86-1.12,50.33-.31,99.92-.68,148.75-1.1-60.68.8-123.99,1.21-184.37,0-3.18.68-10.07-2.39-12.84-4.8-2.44-2.12-7.37-9.74-2.91-10.41,10.49,8.83,13.83,8.94,26.93,9.1,58.53.71,117.19,1.31,175.69-.49,6.46-.51,12.63,1.27,18.12-3.3l54.37-50.02c3.87-2.8,8.19-5.22,13.25-5.94h141.03c12.42,1.49,26.86,18.5,35.73,26.28Z"/>
        <path class="cls-48" d="M1035,969.99c1.99,2.48-1.36,3.35-4.09,3.37-55.71.36-111.53.08-167.16-.67v1.73l165.9-.11c2.76.12,4.83.5,4.1,3.37l-187.57-.49c-3-.55-5.06-1.77-7.46-3.33-21.56-14.03-40.5-41.99-61.81-56.67-1.99-1.37-3.49-3.11-6.35-3.21-66.58,2.38-136.3-3.37-202.52-.11-2.48.12-3.89.92-5.54,1.14-2.11-.17-4.08.6-5.89,2.3l-17.16,15.38c-9.11,6.08-3.58-6.86,1.79-10.12l12.51-11.96c5.49-3.1,8.73-5.1,15.58-5.54,64.12-4.1,133.94,3.05,198.65.16,6.52.78,12.04,3.36,17.03,7.01,17.79,13.01,36.57,35.63,53.7,50.61,3.53,3.09,5.99,5.66,11.21,6.63l185.07.49Z"/>
        <path class="cls-85" d="M1361.25,322.53c17.9-1.12,38.04,1.49,55.67.04,2.27-.19,4.12-.3,6.29-1.06,4.28-1.49,19.84-16.42,24.32-20.39,7.52-6.67,17.01-20.03,28.2-21.37l137.45-.04c7.01-.82,9.75-11.11,22.28-5.41,18.18,8.26-5.08,37.12-20.45,14.69l-137.85-.27c-7.89,1.25-14.34,10.98-19.64,15.71-5.69,5.07-23.09,21.92-28.77,24.16-13.5,5.32-47.79-.59-63.76,1.64l1.26-2.27c12.52-.78,2.07-2.77-4.25-2.95l-.77-2.47Z"/>
        <path class="cls-72" d="M691.25,173.03c2.46,1.47,1.81,2.78-.82,3.87l-16.64,1.46c1.83.85,1.36,2.12-.04,3.46-32.91-.05-65.91-.37-98.82.49-3.17.86-14.28,11.47-17.47,14.32-16.29,14.6-37.47,38.92-54.94,50.62-3.99,2.68-8.67,4.66-13.78,4.92-1.3-1.82-4.74-1.1-6.86-1.12-42.97-.4-91.78,2.85-133.82.06-13.6-.9-21.11-5.5-29.32-14.89-.93-1.07-9-11.66-4.38-11.52,1.84.06,17.11,17.33,21.87,17.57,51.41,2.39,103.66.69,155.36.87,4-.8,18.21-14.33,22.17-17.88,15.09-13.53,34.72-35.48,50.56-46.77,4.9-3.49,7.17-4.97,13.73-5.51,33.65-2.78,78.33-.08,113.17.04Z"/>
        <path class="cls-78" d="M685,998.57c9.22-.01,26.7-1.5,34.19,2.36,20.35,16.57,37.5,37.5,60.45,51.27,24.64-1.73,55.97,3.09,79.8.29,6.19-.73,6.33-6.54,14.93-6.75,18.79-.46,18.43,22.04,2.51,23.23-12.62.95-12.14-8.04-17.65-8.54-1.84-.17-4.74.87-7.29.85-21.29-.17-47.05,1.64-67.61-.01-9.07-.73-14.54-3.89-21.23-8.81-5.61-4.13-50.06-41.97-50.59-45.1-29.21-1.91-61.5-1.64-91.45-.23-7.97,6.18-15.95,12.41-23.92,18.68-11.38,1.85,5.16-12.69,8.27-14.7l3.35-3.76c1.21-.97,2.06-2.04,3.75-3.3,7.43-4.24,16.35-5.8,26.75-4.66,15.59.9,30.84.62,45.75-.83Z"/>
        <path class="cls-18" d="M892.5,217c25.72-.17,51.52.06,77.4.69l-1.15,1.51-1.14,2.2c-22.66-.09-45.33-.09-68.01,0l-1.48-2.2c.36,2.37,2.94,3.3,7.74,2.8l40.75-.66c4.54,2.67-.66,4.19-4.12,4.46-40.92-.33-81.9.47-122.83-.26-2.51-.4-3.96-1.19-5.97-2.44-6.01-3.73-17.33-15.1-23.09-20.37-5.26-4.8-16.64-18.91-23.07-20.38-31.23-.98-62.55-.47-93.79-.52-.87-2.51-3.22-2.14-5.56-2.26-26.15-1.32-53.78,1.11-80.09.07-5.88-.66,2.41-4.24,5.08-4.37,30.01-1.5,62.17,1.83,92.51.04,2.33-.14,4.68.26,5.56-2.26,21.39.08,55.36-2.48,75.07.49,2.15.32,4.69,1.02,6.67,1.83,9.76,4,31.43,28.58,40.73,36.73,1.9,1.66,3.66,3.49,6.22,4.43,24.16.96,48.4.41,72.57.49Z"/>
        <path class="cls-75" d="M181.25,107.08c11.16,3.09,26.35,27.91,36.94,29.63l147.31.17c21.06,1.02,29.17,26.97,48.83,28.51,13.98,1.09,30.08-.54,44.43-.04.94.03,3.85-.35,1.87,1.1-10.83,1.02-24.65-1.37-35.06-.06-3.02.38-4.89,2.37-7.43,2.38-3.05,0-4.9-2.84-8.12-2.32-.63.52,2.37,5.04,2.76,5.25,4.03,2.1,36.83-1.07,44.11.25l11.87-2.2c-3.35,1.6-6.75,2.92-10.62,3.3-9.05.88-42.84,1.2-50.97-.25-14.13-2.52-25.15-21.25-35.44-26-8.03-3.71-32.31-2.5-42.4-2.38-34.41.4-70.5,3.29-105.01,1.19-7.57-.46-13.63-1.4-19.37-6.05-6.38-5.18-19.77-17.68-24.95-23.68-4.93-2.88-12.21-3.96-21.82-3.23l-21.91.13c-8.76-.95,6.7-5.76,10.79-6.57,11.41-.2,22.81.09,34.19.88Z"/>
        <path class="cls-79" d="M721.25,707.27l.48,2.53c-63.87.67-127.57,1.09-191.1,1.23l187.69.58c2.96-.08,4.19.76,2.94,3.36l-200.69-.05c-8.86.78-13.91.47-20.6,6.06-12.25,10.25-27.08,32.25-44.28,33.61-27.24,2.15-58.37-1.48-86.02-.29-4-1.33-7.64-3.42-10.92-5.78-7.54-5.41-22.12-19.97-28.74-26.94-2.78-2.92-5.9-5.49-9.37-7.69-7.31.98-17.69.86-25.62,0-.5-.78-.86-2-.22-2.3,9.31-4.38,21.35-3.76,31.47-2.1,16.43,6.64,28.07,27.87,41.84,35.21,7.03,3.75,11.12,1.05,17.48,1.02,24.83-.1,49.69.58,74.49-.44,19.31-11.31,29.99-37.19,55.72-37.84l205.47-.14Z"/>
        <path class="cls-71" d="M621.25,640.22c-54.51,4.26-119.91,1.53-175.68,1.04-5.88-.05-7.69,1.9-14.2-.61-2.43-.93-12.92-8.88-13.87-8.12,4.09,2.51,2.96,6.97,4.9,9.42,1.08,1.37,10.37,4.86,11.97,4.86h184.37l-4.36,1.1c-48.12-.23-96.28.3-144.39,0-11.36-.07-24.49,1.08-35.63,0-17.38-1.68-35.74-28.6-49.99-37.39-2.42-1.49-4.93-2.46-7.81-3.03l-170.84-.36c-4.12-.75-7.94-2.14-11.35-4.31-4.15-2.63-15.89-13.78-19.38-17.58-.1-.11,1.9-1.25-.75-2.05l-17.01-.37-17.23-3.64c-.6-2.66,2.43-1.56,4.35-1.63,9.58-.35,20.25,1.18,29.39-1.1,12.36,3.14,20.9,21.3,34.48,22.99l173.1.57c16.72,5.25,38.46,37.94,54.36,40.13l185.55.07Z"/>
        <path class="cls-22" d="M726.25,298.35c3.66-2.57,4.3,2.61-.24,3.3l-148.62-.16-5.37,1.71c49.1-.3,98.2-.5,147.3-.59,11.57-.04,10.8,6.09,1.94,3.43-46.84.76-93.81-.57-140.68-.05-6.68.08-13.86,1.22-21.26,1.2-13.5-.05-19.76-4.21-32.41,4.37-14.03,9.51-32.32,30.41-45.62,42.32-15.15,13.57-38.95,37.72-55,48.37-2.92,1.94-5.4,2.81-8.78,3.82-22.45-.85-45.22-.78-68.3.22l-26.04-1.44c-2.63-1.69-5.74-2.95-9.34-3.77-8.54-9.15,7.22-5.62,13.48-2.9,29.19,1.27,58.53,1.13,87.75.37,1.96-.05,3.3-.27,4.95-1.28,34.45-29.82,66.73-61.95,101.24-91.8,6.06-4.31,8.5-5.43,16.26-6.03l12.5-1.1h176.25Z"/>
        <path class="cls-87" d="M546.25,799.61c37.94-.5,75.86-.5,113.75,0,.82.07,1.8-.14,2.5,0-1.3,1.82-4.75,1.1-6.86,1.12-36.58.34-73.18-.48-109.75.21-18.33,12.38-33.1,28.89-50.42,42.5-6.25,3.27-17.57-.28-23.51,1.17-1.39.34-.07,2.61-1.43,3.48-1.89,1.21-6.47-.1-6.77,2.09h28.12c5.98,0,16-9.57,20.62-13.19-3.6,6.56-12.24,13.38-20.62,14.3-7.73.85-15.33-.1-22.46-.06-45.39.3-90.8-.04-136.19-.05-4.2-.44-7.55-2.62-10.75-4.84-4.6-3.19-42.04-35.3-42.49-37.94-.02-.1,1.06-.59,1.25-1.04-2.28-.62-4.39-1.07-6.81-1.21-15.99-.99-65.87,2.92-76.4-.97-1.3-.48-3.84-2.06-4.29-3.36,27.73.25,55.53-.41,83.27.07,2.29.04,4.01-1.18,4.23-1.18,10.48.1,40.36,40.97,54.92,42.39h156.39c1.21-.33,2.06-1.11,3.06-1.71,14.6-8.89,29.62-29.4,44.34-39.05,2-1.31,3.56-2.66,6.28-2.73Z"/>
        <path class="cls-93" d="M553.75,910.63c-5.81,7.76-15.37,13.57-17.49,23.08,7.09-3.54,17.54-17.88,24.55-19.49.74-.17,1.57.82,1.69.8-1.92.59-3.48,1.57-5.02,2.72-10.59,7.93-39.07,37.95-48.43,40.96-2.58.83-5.62,1.22-8.38,1.43-33.56,2.53-71.75-1.58-105.76-.51-3.36-.82-6.01-2.61-8.68-4.46-4.23-2.94-40.86-33.21-41.24-35.74-.01-.09,1.1-.6,1.27-1.08-29.81-3.2-60.67.44-90.65-1.12-5.06-.26-18.45-1.62-23.44-2.49-1.17-.2-3.74-.44-3.42-1.91,37.3,1.24,76.01-1.67,113.16-.06,2.94.13,5.93,1.85,8.08.05,17.94,10.42,28.95,28.18,46.45,38.85,35.59,1.34,71.7.94,107.33.21,6.3-1.45,35.37-29.06,42.5-35.18,3.55-3.05,2.7-3.38,7.47-6.08Z"/>
        <path class="cls-59" d="M135,320.33c12.43,9.87,24.21,21.87,36.28,32.4,4.49,3.92,4.59,7.44,12.4,8.88l95.16.96c19.55,7.7,29.06,30,49.4,35.71,30.52-.43,61.46,1.41,91.76-1-.53.46-.44,1.59-2.05,2l-3.51.26c-31.56-1.32-64.31,2.51-95.14-2.2-2.21-.34-4.58.02-6.8-.06,1.15,6.99,6.93,1.98,8.09,2.18,1.82.31,1.72,4.17,1.98,4.37.66.52,3.16-.75,4.28-.53,22.42,4.41,59.2,1.42,83.79,1.65,2.11.02,5.56-.7,6.86,1.12-28.91-2.43-64.95,3.3-93.01-.1-16.63-2.01-32.5-27.47-46.67-34.81-28.68-2.13-60.15,1.91-88.49-.23-7.48-.56-13.3-2.68-18.89-7.02-14.88-11.56-31.14-28.55-45.44-41.38,4.88-7.3-11.59-4.92-6.24-14.29,5.48,3.36,9.45,8.38,14.42,12.22,1.17.91,1.75-.19,1.82-.13Z"/>
        <path class="cls-10" d="M692.5,8.14c1.06,2.21.47,3.26-2.15,3.38l-159.48-.07-.9,1.05c51.52.36,103.08.33,154.68-.1,12.46.69,9.19,6.12.36,3.43-16.22.2-32.53-.01-48.75,0-43.18-.18-85.27.18-126.25,1.1-3.83,1.64-14.95,12.47-18.78,15.91-8.79,7.91-18.84,20.13-28.06,26.98-4.74,3.52-7.36,4.99-13.73,5.51-26.91,2.23-57.66-1.79-84.99,0-9.24,3.32-14.92,10.61-21.93,16.44l-7.99,7.94c-3.76,4.15-8.3,4.72-10.35-.83,9.76-8.37,19.2-16.97,28.33-25.79,2.98-2.29,4.72-5.79,9.35-5.5l89.46-.49c2.83-.77,8.79-6.63,11.22-8.82,10.92-9.9,28.35-30.27,39.92-37.45,2.01-1.25,3.46-2.04,5.97-2.44l184.08-.26Z"/>
        <path class="cls-16" d="M623.75,491.82c2.77-2.28,4.14-4.54,8.41-5.23,5.37-.87,17.25-1.18,23.41-1.41,34.37-1.26,69.61.18,103.81,1.13,3.73.1,8.91.44,12.42-.05,6.42-.89,8.21-7.75,16.35-7.67,15.84.16,17.79,23.13,1.07,24.18-10.35.65-12.95-8.51-16.06-8.83l-136.32.06c-4.35.14-7.55,3.16-10.6,5.52-14.94,12.62-29.56,25.78-43.85,39.46-2.38.24-3.45-1.12-3.31-3.23,7.07-10.04,15.52-18.62,26.16-26.65l4.75-5.19c.84-.7,1.61-1.47,2.5-2.2,2.99-3.9,6.73-7.36,11.25-9.89Z"/>
        <path class="cls-53" d="M347.5,1042.54c3.34-.28,6.69-.5,10.03-.51,66.89-.18,133.78-.16,200.67-.05,1.57,0,4.38.02,4.3,1.65.01.86-.26,2.19-.87,2.2-68.55.92-139.48.93-207.88-2.2,59,2.99,119.45,4.67,181.35,5.04l6.15,1.55-231.58-.26c-13.22-1.98-37.22-29.43-47.14-38.79-2.28-2.15-14.88-11.71-15.03-12.61-.02-.1,1.06-.59,1.25-1.04l-6.81-1.21c-37.3-.9-75.36,1.4-112.57.05-1.52-.05-4.65.83-4.36-1.09,3.44-.1,6.96.29,10.39-.26,3.57-.58,2.74-2.88,5.16-3.12,29.1-2.97,70.6.38,101.33.1,2.11-.02,5.56.7,6.86-1.12,2.47.65,5.46,2.4,7.53,3.82l51.24,46.17c5.96.1,12.22,1.53,18.09,1.75,6.59.24,14.7-.19,21.89-.08Z"/>
        <path class="cls-23" d="M822.5,97.18c8.15,5.77,31.38,29.42,37.7,31.15,1.87.51,3.46.61,5.37.77,40.76,3.36,87.14-2.82,128.5.22,13.09,1.93,29.61,22.69,39.67,30.52,1.88,2.26-.16,3.11-3.06,1.98-9.43-8.78-15.24-12.08-2.16-.24,1.09,1.76.06,2.72-2.28,2.65-10.17-5.36-21.64-24.74-33.21-26.31-41.52-2.58-87.77,3.19-128.72-.03-6.74-.53-10.43-2.48-15.59-6.08-8.1-5.65-30.01-25.2-34.99-32.44-1.07-1.55-2.48-5.77-3.66-7-1.54-1.61-4.76.65-3.83-2.88,7.08-1.49,8.76,3.74,13.11,6.64,1.16.77,2.8.81,3.13,1.05Z"/>
        <path class="cls-57" d="M563.75,544.58c3.45-.34,2.69,1.96-.25,3.3-63.96-.34-127.53-.18-190.7.46l189.43,1.72,1.52,2.21c-17.63,2.95-42.18-.19-60.68-.05-47.06.35-97.61,3.9-145,1.2-6.36-.36-14.69-1.21-19.95-4.44-14.94-9.16-27.66-28.83-43.12-38.48,2.1-2.51-5.53-3.16-8.08-3.34-34.87-2.47-73.97,2.65-108.78.03-4.29-.32-12.26-.89-14.39-4.37,42.73.27,85.52-.44,128.27.07,2.29.03,4.01-1.18,4.23-1.18,7.01.09,40.75,39.07,50.89,42.64l216.61.23Z"/>
        <path class="cls-67" d="M136.25,662.2c18.81,13.58,33.75,31.97,53.39,44.84l127.28.19c3.37-.04,6.37,1.05,9.33,2.24l-19.27.09-11.98,4.3h25.62c1.79,0,8.54,4.94,9.91,6.6.39.47-.58,1.05-.53,1.09-4.37-3.28-8.21-6.31-14.37-6.6l-126.95.61c-9.67-1.83-12.77-8.13-18.64-13.28-11.33-9.95-29.36-23.24-38.78-33.5-.04-.05,1.06-.74.65-1.12-3.32-3.02-34.03.25-41.22-1-1.41-.25-.22-2.79-.75-3.26-1-.89-5.21,1.12-4.93-1.2,14.32.46,28.85-.63,43.16-.06,2.94.12,5.93,1.86,8.08.05Z"/>
        <path class="cls-35" d="M608.75,1007.37c-1.48,5.64-12.06,9.84-13.73,14.86-.58,1.74.18,1.74,1.88,1.66,7.09-.35,17.36-17.17,27.54-18.66,29.69.59,59.91-1.51,89.31,1.1-.19.44-1.26.94-1.25,1.04h-52.5c-12.91.1-25.92-.48-38.82.49-11.22,8.01-20.92,17.54-31.21,26.41-2.11,1.82-3.31,4.28-5.53,6.13-14.15,11.76-24.66,10.12-43.18,9.84-53.43-.82-109.05.06-161.98-3.21l-25.52-3.39h208.75l-4.36-1.1c-70.18-.82-140.49,1.1-210.64,0,1.3-1.82,4.74-1.1,6.86-1.12,70.37-.77,140.81.67,211.19-.05,3.22-.5,5.72-2.05,8.23-3.75,11.22-7.6,23.7-21.25,34.97-30.25Z"/>
        <path class="cls-80" d="M175,31.23c22.23,15.58,42.66,43.29,64.98,57.73,4.63,2.99,11.02,3.51,16.85,3.87,14.15.87,35.95.86,50.11,0,3.39-.2,8.8-.64,11.84-1.68,5.63-1.93,26.76-22.71,33.73-28.05-1.46,6.09-25.31,21.29-26.21,24.8-.45,1.74,3.45,3.88,4.98,3.27.71-.28,9.45-7.91,11.23-9.39-7.32,10.17-16.31,17.74-30.58,18.73-13.88.96-57.26,1.73-69.49-.53-3-.55-5.06-1.77-7.46-3.33-12.4-8.07-34.77-29.92-46.25-40.67-5.07-4.75-16.49-14.59-19.97-19.27-.04-.05.86-.53.53-1.09-.99-1.67-4.01-2.49-3.03-5.5l8.74,1.09Z"/>
        <path class="cls-96" d="M721.25,714.97c-.91-1.41-1.5-1-3.01-1.16l-197-.49c4.93-.63,5.84-2.9,9.35-5.04l187.68.16c1.65.33,2.13-.62,2.99-1.17,4.24-2.69,5.42-7.88,13.8-7.22,20.95,1.65,13.02,30.28-7.02,22.69-5.41-2.05-4.77-4.65-6.78-7.77Z"/>
        <path class="cls-68" d="M883.75,607.24c3.89,3.41,6.76,8.09,13.07,8.84,6.34.76,62.86.9,65.67-.6,1.29-.69,2.57-3.89,5.05-5.45,11.95-7.49,25.89,3.36,20.26,15.61-3.94,8.58-21.16,7.71-24.93-.84-20.6-1.1-43.19,1.53-63.54.06-5.11-.37-7.63-.95-11.83-3.34,2.49-.46-1.3-2.79-1.88-3.3-7.97-7.01-29.89-28.89-39.05-30.52-3-.53-6.06-.22-9.08-.27.98-4.46,7.27-4.72,11.74-4.32,9.08.82,23.82,16.35,30.76,22.47.58.51,3.22,3.84,3.75,1.65Z"/>
        <path class="cls-39" d="M995,706.17c3.68-1.3,4.99-.71,4.57,2.69,3.8.56,5.2,1.86,4.18,3.91-2.2.58-5.72.98-8.07,1.14-40.14,2.76-84.04-2.61-124.42.51-2.21,2.79-4.25,6.07-8.39,6.9-22.63,4.54-23.06-23.22-4.64-23.88,9.21-.33,10.81,8.05,14.89,8.74h121.89Z"/>
        <path class="cls-5" d="M943.75,880.95c48.08.74,96.52.62,145.3-.36,2.44-.24,2.75.97.95,2.56-.02.84-.18,2.09-.84,2.2-3.33.53-41.4.56-43.48,0-1.42-.38-2.68-.84-3.18-2.2,2.79,1.93,5.96,3.16,9.5,3.7l34.97-.38c2.44.22,3.6.92,3.03,3.28l-154.98.57c-14.81,19.62-38.64-5.1-19.96-15.36,11.79-6.48,14.19,3.14,19.96,5.42,2.79,1.11,5.84.45,8.73.57Z"/>
        <path class="cls-61" d="M1388.75,477.53l9.99,3.86c-.08,2.87-4.66,1.33-7.62,3.34-1.32.9.18,1.52.13,1.59-23.37,26.92-62.52,51.79-87.09,78.96-13.74,8.77-36.55,2.9-52.91,4.59-.43-3.25,2.99-4.34,10.26-3.27-.88-1.88-1.35-3.14.99-4.42,9.71-.1,27.37,1.87,34.91-2.83,25.55-23.28,50.34-47.4,76.31-70.3,3.86-3.4,10.32-9.55,15.03-11.51Z"/>
        <path class="cls-51" d="M726.25,298.35c7.64-12.88,29.63-7.87,25.96,8-2.15,9.29-14,11.33-21.65,5.25-1.45-1.15-2.94-4-3.33-4.2-1.62-.8-4.95.51-5.97-1.35.66-.01,6.52.65,4.37-1.1-57.61-1.34-116.27,1.81-173.76,0-1.51-.05-4.65.82-4.35-1.08,9.67-7.22,19.22.65,29.3-4.47l150.06.06c1.72-.22-.65-1.05-.62-1.1Z"/>
        <path class="cls-64" d="M685,15.84c.62,0,7.67.75,5.62-1.1-54.66-1.37-110.48,1.86-165.01,0-1.52-.05-4.65.83-4.35-1.09,3.23-.22,8.44-.89,6.24-4.4l162,.05c1.67.2,2.04-.29,3-1.16,2.27-2.05,1.71-4.9,6.78-6.67,22.94-8.01,26.77,26.42,2.67,23.1-6.71-.93-6.92-5.79-9.45-7.09-2.3-1.17-5.89.36-7.5-1.65Z"/>
        <path class="cls-65" d="M525,439.05c1.53-.37,3.02-1.47,5-1.1,3.14,1.54-4.73,1.31-1.32,4.85,1.28,1.33,3.99.05,5.07,1.74-1.24.54-6.4,2.21-7.5,2.2-79.38-1.14-159.61-1.42-239.36-1.11-2.37-.21-9.23-1.41-10.66-2.71-.78-.72-4.92-9.32-4.36-10.46,4.22,4.07,9.58,7.74,16.21,7.73l232.69.03c1.88.68,3.44-.98,4.24-1.18Z"/>
        <path class="cls-50" d="M1476.25,420.36c-.83.17-2.46,1.77-4.23,1.18-32.47.74-65.22-1.26-97.66-.08-1.54.06-4.64-.84-4.36,1.1h23.75c-1.24,7.51-9.2,4.18-15,6.6l-87.84-.25c-14.41-2.57-33.1-29.34-45.91-36.03-.53-2.71,1.08-7.85,5-6.6,9.93,5.74,33.69,32.69,41.94,34.02l184.31.05Z"/>
        <path class="cls-19" d="M626.25,499.51c-17.95,13.94-35.05,36.56-53.72,48.95-2.41,1.6-5.89,3.33-8.78,3.82l-210.01-1.65c0-1.18,11.65-.73,13.51-1.23,3.75-1.01,3.39-3.55,5.83-3.81l191.29.1-.62-1.1c16.02-13.07,30.41-27.42,46.25-40.67-2.26,7.53-20.47,16.67-23.13,22.03-.73,1.46.75,3.24-.23,5.14-.2.39-9.66,8.11-3.53,5.8,1.02-.38,15.17-12.82,15.72-13.66,1.48-2.31.98-5.8,1.26-6.05.2-.18,3.54-.03,5.61-1.1,3.2-1.65,13.21-11.74,16.81-14.91.58-.51,3.22-3.84,3.75-1.65Z"/>
        <path class="cls-49" d="M1070,18.04l23.75,1.1h2.5l.21,2.49c-25.17,1.47-20.4,1.66-1.12,1.94,3.24,1.59,2.81,4.92-.35,3.26h-113.13c-3.57.59-4.51,5.9-9.3,7.2-21.81,5.91-25.92-21.67-6.36-23.21,8.77-.69,10.77,6.56,16.86,7.28,28.98-.08,57.98-.09,86.94-.06Z"/>
        <path class="cls-83" d="M1040,329.13c1.53,1.73.83,2.63-1.46,3.12l-21.01-.12-1.01,1.6,22.03-.16c3.25.81,5.19,1.75,2.7,4.35-2.23-.63-4.45-1.03-6.81-1.14-41.38-1.99-84.75,1.64-126.35-.04-3.24.34-4.19,8.17-14.97,7.87-16.23-.45-16.92-22.81,0-23.27,7.55-.2,9.57,3.05,14.41,7.22l132.48.57Z"/>
        <path class="cls-13" d="M1103.75,969.99c4.27-1.49,3.89,2.13-.1,3.31-16.63.15-28.64,1-1.42,1.3,1.9.06,2.56,1.4,2.77,3.08-20.42,1.95-49.87.16-71.25,0-.22,0-1.94-1.16-4.23-1.18-56.08-.41-112.21.48-168.28.08v-5.49c56.48-.55,113.04.69,169.53.08,2.28-.02,4-1.18,4.23-1.18,22.89-.27,45.86.2,68.75,0Z"/>
        <path class="cls-82" d="M181.25,107.08c-3.56,2.72-8.92.12-13.07-.04-4.87-.19-15.85-.67-20.04.06-2.9.5-8.14,5.06-13.13,4.4-.3,1.91,2.84,1.04,4.35,1.09,8.13.27,36.12-1.52,40.76,1.71,1.32.92-.18,1.52-.12,1.59-2.67-1.58-4.86-2.03-8.07-2.26-38.9-2.75-81.98,2.19-121.33.04-9.31.98-7.05,9.89-19.98,8.86-17.38-1.38-14.9-24.36,1.26-24.34,9.66.01,11.37,7.2,14.99,7.81,40.77,1.95,84.66-2.63,125.06-.05,2.14.14,7.57.66,9.33,1.14Z"/>
        <path class="cls-26" d="M1097.5,255.48c1.77,2.39-.46,2.89-3.06,3.29l-52.22-.08c-2.42.64-4.82,1.77-7.22,3.39l1.47-2.02c17.75-.22,35.52-.28,53.32-.18l1.47,2.2,1.48.84c-18,1.32-36.92.81-55.23.26-6.43-.35-9.35-.49-14.92-3.92-10.16-6.24-29.79-29.91-39.16-32.61-8.25-2.37-30.77-.76-40.91-.85l4.99-2.19c-14.28-1.61-34.61,2.13-48.11-.02-4.86-.77-2.72-4.39-1.26-4.39h70.62c.28-1.94-2.82-1.04-4.36-1.1-21.38-.78-43.52.25-65.03.02-2.12-.02-5.56.7-6.86-1.12,25.27.08,65.84-2.96,89.07.27,19.28,2.68,33.48,30.17,50.87,37.71l65.05.5Z"/>
        <path class="cls-27" d="M1126.25,475.33l-1.02,2.38c-7.58,1.77.36,3.48,5.01,4.04l1.02,2.38c-15.81-1.68-40.88,3.47-54.87-2.86-13.43-6.07-36.52-34.47-50.05-45.02-1.61-1.26-4.26-1.19-5.08-2.68-.03-.06,2.12-1.12.62-1.1-8.68-1.41-26.15,1.89-33.6.07-.86-.21-1.88-4.47-3.28-5.55,10.66-.06,21.35.01,32.02.07,2.27.01,4.01-1.18,4.23-1.18,11.69-.06,37.28,28.91,46.22,36.85,5.86,5.21,11.88,11.95,20.6,12.67,12.09.99,25.9-.84,38.19-.05Z"/>
        <path class="cls-28" d="M1478.75,806.2c-.58.15-1.69,1.5-3.01,1.15-24.98.58-50.17-.97-75.13-.05-1.54.06-4.64-.84-4.36,1.1h81.25c-.21.85-2.16,5.5-2.5,5.5h-90l4.36,1.1c27.63-.8,55.55,1.08,83.14,0-1.3,1.82-4.74,1.1-6.86,1.12-26.25.29-52.57.08-78.83.03-6.05-.01-10.54-2.11-17.11.24-8.49,3.04-25.07,24.62-34.7,29.39-2.55,1.64-3.55-.13-2.28-2.66,6.82-4.95,13.42-13.39,1.4-3l-4.12.17c-.03-2.17,1.69-3.05,3.1-4.41,6.9-6.69,20.45-19.58,28.12-24.74,5.89-3.96,10.95-4.16,18.1-4.96l99.43.04Z"/>
        <path class="cls-9" d="M1451.25,201.61c-12.08,2.72-26.1.26-38.74,1.11,1.18,2.66,7.73.12,9.8,1.25.69.38,1.86,4.96,1.44,5.33-3.51.25-7.24-.34-10.72-.04-1.59.14-2.86,1.13-3.03,1.14-45.8,2.68-94.98-1.71-141.25,0-.66-2.17.11-3.05,2.51-3.19,17.54.18,21.19-.38,10.94-1.7-2.57-2.59-2.29-3.38,1.55-3.9,55.8.58,111.7-.43,167.5,0Z"/>
        <path class="cls-4" d="M1160,565.47c3.21-1.72,7.28,2.93,5,5.5-32.87,29.33-65.91,58.59-98.75,87.94-7.92,5.58-10.78-.22-4.7-6.02,3.72-2.84,6.95-5.96,9.7-9.37,18.86-19.85,41.74-38.16,62.53-56.58,9.05-8.02,13.99-16.01,26.22-21.46Z"/>
        <path class="cls-58" d="M1461.25,577.56c-.69,1.26-15.92,13.24-18.78,15.91-12.49,11.63-24.65,23.87-37.43,35.23-8.49,7.55-23.79,23.59-35.65,24.71-9.24.87-19.96-.64-29.38,0l2.61-2.44,14.87-.72c5.28-.83-22.41-2.37-22.76-1.28-2.35-.21-2.93-1.2-2.22-3.26,11.29-.87,24.64,1.17,35.65.02,6.64-.69,19.07-13.37,24.38-18.13,11.06-9.92,21.35-20.94,32.43-30.84,6.88-6.14,23.72-22.64,31.28-25.8,3.13.78,6.43,3.96,5,6.6Z"/>
        <path class="cls-1" d="M1295,1021.66c15.41.73,31.01.91,46.8.54,3.28.11,7.99,3.11,5.7,6.06-14.66,1.29-32.18,1.04-47.5,0,13.92,1.25,30.44,1.08,45.32.66,1.5-.88,3-1.57,4.53-1.61,13.67-.39,27.41-.46,41.09-.32,1.5.02,3.01.4,4.54.8s3.04.96,4.51,1.57c-.73.12-2.53,1.78-4.23,1.18l-142.58-.02c-6.49.9-21.91,17.86-28.16,22.55-1.51,1.14-3.2,1.18-3.78,1.57-3.15.67-5.68-1.88-6.25-4.4,12.28-9.79,25.48-29.07,43.27-29.56,11.66-.32,24.72.7,36.73.98Z"/>
        <path class="cls-34" d="M1056.25,1051.34c31.1.45,62.23.82,93.37,1.1l.38,1.1c-.27.85-.67,2.12-1.43,2.2-2.95.29-21.53.29-22.74-.73-.42-.36-.65-.89-.83-1.47,4.09,1.46,1.66,5.42-2.5,5.5.6-.16,1.03-.52,1.44-.93,1.9-1.9,13.52-1.47,17.61-1.27,4.9-.8,8.13-.06,9.7,2.2,2.65,1.01,1.26,1.89-1.43,1.82-30.25-.54-60.19-.41-89.82.37-2.34.07-6.01-.47-7.86-.02-1.88.45-3.4,7.56-12.76,7.81-22.14.59-15.17-32.98,7.31-21.92,4.86,2.39,2.22,2.82,9.55,4.24Z"/>
        <path class="cls-29" d="M1415,874.36c3.11,1.99,7.63-.18,7.6,4.87,0,1.21-3.14-.16-2.59,1.71h172.49c-.83.18-2.46,1.78-4.23,1.19l-171.14.15-75.88,66.83c-3.13,1.8-3.45-.05-.96-5.53-2.28,2.01-4.04,2.02-5.29.03l72.47-65.43c2.08-1.46,5.03-3.14,7.53-3.82Z"/>
        <path class="cls-60" d="M1332.5,645.71c.16,0,1.41,1.08,3.03,1.14,6.39.27,16.85-1.06,22.34-.02.53.1,4.81,5.62,8.37,4.38.3,1.91-2.84,1.04-4.35,1.09-7.98.27-14.14.36-21.89,1.1-30.53,2.91-63.8.82-95,1.1-8.44-.76-16.93-.9-25.46-.41.09-1.92.21-3.3,2.36-3.38-5,0-7.72-1.3-8.15-3.91,2.2-.68,4.47-.98,6.81-1.14,32.66-2.27,78.64-1.07,111.94.04Z"/>
        <path class="cls-89" d="M1250,386.29c-2.27,2.12-1.59,5.28-5,6.6-2.97-1.55-4.56-1.97-8.07-2.26-35.11-2.83-75.45,2.81-110.68.06-11.87-.1-17.03-3.85-5-8.79,36.26.93,76.39-2.48,111.92-.04,6.21.43,11.64,1.44,16.83,4.44Z"/>
        <path class="cls-7" d="M1405,745.74c-11.93,8.58-16.18,8.16-31.89,8.78-10.01.4-19.48-1.1-28.69-1.13-26.89-.11-53.8.17-80.68.05-1.05-2.12-.52-2.55,1.68-3.15l16.07-.09c4.92-1.69-17.81-1.29-18.29-1.07-5.38-3.16.02-5.22,4.29-3.39,40.07-1.24,80.45.97,120.56-.06,4.85-.71,13.33-7.73,16.94-10.93,3.45-2.41,5.36.91,7.46,2.75-1.82,1.69-3.71,3.31-5.58,4.95-.58.5-4.37,2.83-1.88,3.3Z"/>
        <path class="cls-17" d="M1152.5,880.95l6.23.76c4.56-.91,5.27,1.18,2.02,3.61,3.94.46,5.89,3.15,1.75,4.42-18.92,2.15-52.3.44-72.5,0-.22,0-1.98-1.12-4.23-1.18-10.63-.27-28.23,1.62-37.62.06-2.53-.42-5.85-3-5.65-5.47h47.5c.28-1.94-2.82-1.04-4.36-1.1-44.33-1.62-90.43.43-135.03.02-2.11-.02-5.56.7-6.86-1.12,67.57,2.68,142.51-4.98,208.75,0Z"/>
        <path class="cls-33" d="M1363.75,8.14l11.79.95c.95.75-.06,5.46-.76,5.86-7.93.13-15.78.43-23.54.89-28.16,1.16-57.28-.92-85.55.06-4.17.58-15.81,10.93-19.45,14.23-3.48,1.61-6.43-5.39-3.75-7.69,6-5.03,10.73-12.17,19.44-14.23,32.92,1.73,69.32-2.53,101.81-.06Z"/>
        <path class="cls-63" d="M1121.25,381.89c.81,2.7-2.82,2.27-3.57,3.97-2.35,5.34,2.58,3.22,6.58,3.81,1.01.15,1.78,1,1.99,1.01-10.18-.19-20.95,1.42-29.92-3.92-15.19-9.04-40.36-36.07-55.08-48.84-.97-.84-.42-1.77-3.11-2.19-4.31-.66-24.36.79-25.64-.02,1.39-1.08,2.42-5.34,3.28-5.55,3.31-.81,16.48.09,21.19.11,1.59,0,2.86-1.14,3.03-1.14,2.78-.05,6.59,2.33,8.78,3.82,18.14,12.34,34.97,33.55,53.09,46.75,5.75,3.32,12.91,2.03,19.38,2.19Z"/>
        <path class="cls-21" d="M1126.25,475.33c15.32-1.52,37.74,2.34,51.85-.02,6.31-1.06,8.22-11.5,21.54-4.6,13.96,7.23,1.75,29.02-15.07,19.85-3.18-1.73-4.38-5.11-5.82-5.88-3.51-1.87-39.45.02-47.49-.55-2.64-.19-7.35-2.19-11.26-1.09.25-1.37-.39-6.28.01-6.59.24-.19,5.56-1.04,6.24-1.11Z"/>
        <path class="cls-69" d="M1400,111.47l3.12,3.29c1.4-.46,4.55-4.66,6.88-2.75-5.58,6.24-12.29,8.1-21.24,7.16l7.49,1.09c-22.43,3.71-59.4,1.01-83.75,1.1-10.89-.63-21.81-.8-32.76-.53l1.28-2.91c12.29-1.22,3.18-3.25-3.46-1.97-3.1.06-6.19-.08-5.07-3.39,38.54-.24,77.13.35,115.68-.06,4.63-.05,7.24,1.87,11.82-1.04Z"/>
        <path class="cls-88" d="M1351.25,15.84c.17,0,1.42-1.06,3.03-1.14,3.07-.17,17.2.57,18.07-.1.24-.18,1.64-5.17,1.4-5.35-3.51,1.12-7.83-.94-10-1.11l64.12.02c18.88-24.15,41.02,12.63,16.19,16.23-9.76,1.41-12.3-4.28-18.43-8.56h-74.38Z"/>
        <path class="cls-77" d="M1215,1050.24c3.01.09,4.85,2.31,6.25,4.4-4.14,2.76-2.78,4.71-10.63,5.5-12.64,1.27-32.71.89-46.2,1.15-34.75.66-69.71-1.07-104.43-.05,1.3-1.82,4.74-1.1,6.86-1.12,26.46-.29,53.72.98,80.03.02,1.54-.06,4.64.84,4.36-1.1h-28.75c2.01-1.09,2.16-5.5,2.5-5.5h25l-4.36-1.1c-27.56-1.56-57.96,2.06-85.16.08-2.4-.17-3.18-.98-4.23-1.18,50.61-.54,101.32.71,151.94.04,2.47-.03,5.2-1.19,6.81-1.14Z"/>
        <path class="cls-84" d="M1072.5,774.33c.47.5.9,1.02,1.16,1.6,1.17,2.56-6.37,8.04-8.91,9.5,1.39.09,3.14.42,5.25.99-4.5,3.44-5.96,6.69-13.23,7.6-11.65,1.45-29.31.02-41.77.1l-112.49-1.64c2-2.54,5.44-1.09,7.95-1.83,1.94-.57,1.06-2.91,3.87-3.21,27.84-3.03,69.18.44,98.82.11,2.12-.02,5.56.7,6.86-1.12,10.67-.1,32.77,1.79,41.2-2.79,2.15-1.17,9.01-7.26,11.3-9.3Z"/>
        <path class="cls-44" d="M1146.25,718.26c-24.79,22.46-49.41,47.66-76.25,68.15l-6.23,3.3c.44-1.52-2.83-5.1-2.52-5.47.13-.15,2.36-.42,3.78-1.61,2.73-2.28,6.58-4.96,7.47-8.31,24.31-21.64,48.35-44.07,72.5-65.96,2.93,1.59,3.03,7.35,1.25,9.89Z"/>
        <path class="cls-12" d="M1246.25,30.13c-1.53,1.39-2.56,3.89-4.36,5.51-7.21,6.47-27.06,25.59-35.14,28.46-6.24,2.21-32.41,1.7-40.5,1.21-5.23-.43-10.52-.76-15.88-1-1.29-2.72-2.66-5.32-4.12-7.79l57.57-.49c12.97-11.16,25.55-22.57,38.68-33.59l3.75,7.69Z"/>
        <path class="cls-94" d="M1330,840.28c3.4-2.37,6.35-4.99,9.44-7.66,9.37,3.4-.82,7.44-4.59,11.55-1,1.1.21,1.54.15,1.6-6.54,6.83-11.53,9.85-22.03,10.86-22.99,2.2-52.82-.09-76.72.14-5.97-.58-6.34-2.32-1.12-5.21-3.53-.05-5.24-1.24-5.13-3.58l86.81-.06c4.47-.66,9.59-5.13,13.19-7.64Z"/>
        <path class="cls-14" d="M1437.5,991.98c1.18,1.22,7.25,1.57,6.24,3.83-.86,1.93-12.45,10.49-15.14,13.25-1.02,1.05.21,1.54.15,1.6-9.48,9.42-13.73,16.2-28.75,18.69-31.78-.86-63.87,1.16-95.64,0-1.54-.06-4.64.84-4.36-1.1h47.5l-5.9-5.51c-14.09-.38-28.29.5-42.38.09-2.24-.06-4.01-1.17-4.23-1.18l106.85-.02c3.76-.63,15.59-12.08,19.4-15.37,3.55-1.56,10.06-7.51,13.75-12.09.83-.75,1.68-1.46,2.5-2.2Z"/>
        <path class="cls-95" d="M1213.75,646.81c4.78,2.15,10.22.13,13.74,4.95l-7.49,1.63c8.01.69,17.42-1.41,24.99,1.11-9.53.09-19.24-.55-28.73.57-23.55,20.88-46.74,42.09-70.02,63.19-1.47-3.07-2.43-6.66-1.25-9.89,15.46-14.01,30.53-29.42,46.22-43.45,4.75-4.25,17.23-16.47,22.53-18.11Z"/>
        <path class="cls-15" d="M1272.5,112.57c.17,0,1.42,1.03,3.03,1.14,7.44.51,14.43-3.07,14.47,5.44l-9.99,1.1c10.55.71,22.31-1.42,32.49,1.11-44.15.16-88.35-.12-132.5,0,.44-2.63,3.03-3.77,7.76-3.43.36-3.11,1.95-4.9,4.74-5.37,25.23-.62,55-1.22,80,0Z"/>
        <path class="cls-3" d="M1033.75,159.84c4.07,2.47,5.01,4.94,10.6,5.52,13.58,1.42,50.07,1.31,63.78-.02,4.08-.4,6.1-1.39,9.38-3.3,2.3.68,2.87,2.55,1.73,5.6l2.02,2.09c-1.77.96-3.12,1.92-5.22,2.54-10.79,3.17-56.33,2.96-69.14,1.85-9.66-.84-14.57-3.55-20.64-9.88-.06-.06,1.13-.45.15-1.6-3.23-3.79-11.91-6.94-5.77-12.67.8.02,9.33,8.64,11.3,10,1.26.87,1.75-.18,1.82-.13Z"/>
        <path class="cls-43" d="M1150,258.77c1.26,3.64-2.69,3.02-4.98,1.17,2.36,4.43,1.94,5.88-1.27,4.33l-106.25-1.1c15.04.82,34.21.55,49.39,0,1.54-.06,4.64.84,4.36-1.1h-56.25l2.02-5.56c18.73-.14,37.51.38,56.25.15,2.27-.03,4-1.18,4.23-1.18,10.92-.13,39.86-1.59,48.45.84,1.85.52,2.78,1.8,4.05,2.46Z"/>
        <path class="cls-62" d="M1192.5,112.57c-.36,1.61-2.37,4.95-2.43,6.13-.05.98,3.01-.32,2.42,1.55-4.92-.3-7.99-.15-12.49,1.11-13.75,3.83-41.5,39.06-58.75,48.37l-4.99,1.1,1.24-8.79c15.15-8.85,30.01-28.56,44.34-39.6,13.13-10.12,13.19-9.44,30.66-9.86Z"/>
        <path class="cls-74" d="M1361.25,322.53c4.42,1.26,7.17.46,10.38,1.31,1.71.45,2.67,2.59,4.13,2.83,1.92.32,4.71-2.21,6.72.82.6,2.65-2.43,1.57-4.35,1.63-4.61.14-9.66.97-13.14,1.1-21.22.76-26.32-17.19-40.61-25.35-1.95-1.11-2.88-.67-4.39-1.04-17.8-.69-35.64-.96-53.51-.8l1.01-1.4c.13-.85.39-2.08,1.11-2.2,1.51-.24,18.49-.28,19.6,0l1.79,2.2c-1.94.09-2.87-1.1-2.79-3.59-9.25.67-18.46.57-27.64-.3l-.82-2.71c18.45.13,40.25-1.39,58.17-.04,20.27,1.53,26.3,22.38,44.33,27.52Z"/>
        <path class="cls-66" d="M1230,847.98c1.43.13,4.73,2.17,7.51,1.09.1,5.06,1.39,6.19-5,5.51l3.74,2.19c-6.97.07-24.49-1.13-29.68.83-1.56.59-7.25,4.94-9.08,6.3-9.41,7.02-23.29,24.52-34.98,25.85,1.12-3.48-3.36-1.5-3.78-2.74-1.22-3.65,1.09-3.01,2.52-4.94-3.11,1.14-7.08-.99-8.74-1.11,4.52-.3,10.29.97,14.24-1.21,9.58-8.07,28.42-30.4,41.35-31.79,5.19-.56,16.59-.44,21.9.02Z"/>
        <path class="cls-76" d="M1258.75,295.05c3.95,2.77,30-.04,31.26,1.09v5.5h-22.51c-.28,1.94,2.83,1.04,4.36,1.1,14.32.52,31.4-1.37,45.12-.05,1.74.17,2.37.99,3.02,1.15h-121.25c-3.78-.56-3.7-7.99,0-8.79,17.68,1.69,41.5-.13,60,0Z"/>
        <path class="cls-70" d="M1262.5,562.17l2.49,6.59c-3.52.24-7.22-.33-10.72-.04-1.59.14-2.86,1.13-3.03,1.14-28.55,1.64-57.86-2.1-86.25,1.1l-5-5.5c3.04-1.36,3.46-2.84,8.1-3.32,27.21-2.81,65.69.33,94.4.02Z"/>
        <path class="cls-42" d="M1283.75,201.61c-4.02,4.28,6.27,1.26,7.5,2.21-.31,1.07-1.01,5.05-1.4,5.35-1.87,1.44-17.65-1.61-21.09,1.24-2.9.11-7.7-.65-10,.55-1.88.99-4.65,7.04-8.38,8.01-22.94,5.94-25.09-25.35-3.52-24.02,6.96.43,8.1,5.89,12.55,6.64,5.97,1,17.52-.05,24.35.02Z"/>
        <path class="cls-97" d="M1071.25,643.51c-.21.22-.2,1.69-1.18,2.76-4.39,4.77-11.7,6.59-8.81,13.73l4.99-1.09c-18.48,16.52-36.46,33.52-54.97,50.04-2.07,1.42-5.06,3.18-7.53,3.82-1.47-1.48-3.97-.89-5.69-2.2-2.59-1.97,1.25-5.35-3.06-4.4l9.38-3.29,66.87-59.37Z"/>
        <path class="cls-30" d="M1251.25,943.61c-.03.79-.08,1.4-.21,1.42-1.04.11-18.49.76-17.71.39,3.11-1.47,30.01-1.95,17.92,5.89-33.33.61-66.66.61-100,0l-2.46-1.26c.47-2.1-1.21-3.88-5.04-5.34,1.3-1.82,4.74-1.1,6.86-1.12,33.53-.37,67.13.07,100.64.02Z"/>
        <path class="cls-90" d="M1146.25,56.51c5.33,1.37,9.3,1.3,14.99,1.11l-9.99,1.09c-.35,8.27,5.57,4.86,11.97,5.45,1.58.14,2.85,1.13,3.02,1.14-6.58-.51-14.25.7-20.65.02-12.89-1.37-31.37-25.88-41.84-33.56-1.66-1.22-8.8-4.48-8.76-4.94.02-.15,1.14-.54,1.27-1.08-5.47-.13-10.88.36-16.32-.52-1.19-.19-11.4-2.92-8.69-4.99,7.31-.11,14.65.11,21.97.04,1.63-.02,2.8-1.13,3.03-1.14,3.9-.22,7.6,2.37,10.6,4.42,11.7,8.01,22.43,22.82,33.13,30.23,2.58,1.79,3.23,1.94,6.28,2.72Z"/>
        <path class="cls-81" d="M1341.25,949.11c-2.8,2.55-7.33,3.32-11.25,3.3-25.58-.62-51.83-.99-78.75-1.1-.34-1.32.85-5.3-.72-5.52-2.15-.3-18.04.67-18.04-.53l18.76-1.65c23.35-.04,62.53,2.88,83.75,0,3.19-.43,5.32-4.18,6.89-2.22.51.64,1.51,3.19,1.43,3.9-.17,1.4-4.71,2.97-2.07,3.81Z"/>
        <path class="cls-41" d="M1267.5,745.74c-1.47.05-5.25-.84-4.99,1.09,5.28.94,16.09-1.21,20.49-.07,1.35.35.62,2.53,1.35,3.36,1.51,1.71,4.6.13,4.4,2.2-7.16.41-14.88-.51-21.97-.03-1.67.11-2.62,1.08-3.03,1.14-1.59.23-3.84-.42-5.33-.02-2.57.69-4.86,9.96-15.95,8.38-15.98-2.28-13.92-23.41,1.89-23.84,9.78-.26,9.69,5.39,14.01,6.47,2.93.73,6.98-.86,9.13,1.32Z"/>
        <path class="cls-47" d="M1150,258.77c14.16,7.41,35.39,35,48.75,36.28v8.79c-6.53-.85-11.68-3.11-16.85-6.62-3.95-2.69-37.08-30.8-38.15-32.95-.03-.06,1.34-.64,1.09-.91-.61-.68-6.65-2.01-1.12-5.22,2.67-1.55,4.9,2.89,6.27.63Z"/>
        <path class="cls-24" d="M1143.75,944.71c4.52-.3,9.21.2,13.74.01.13,2.13-3.86.84-5.52,1.07-1.57.22-.38,4.2-.72,5.52-3.22.42-6.56.78-10,1.1-12.35,5.43-22.9,24.01-36.25,25.28-8.45-3.69-20.32,3.21-24.99-6.05l25.01-.57c-.13-.53-1.25-.92-1.27-1.08-.05-.46,7.12-3.63,8.77-4.93,5.98-4.68,13.48-13.65,20.06-17.53,4.5-2.65,6.1-2.49,11.16-2.82Z"/>
        <path class="cls-38" d="M1151.25,951.31c32.61-1.21,67.16,0,100,0,23.93,0,47.95-.28,71.89-.02,2.12.02,5.56-.7,6.86,1.12h-188.75c3.97-1.75,5.81-.94,10-1.1Z"/>
        <path class="cls-57" d="M293.75,501.71c-56.91,0-113.85-.07-170.77.08-1.86.6-3.31-.94-4.23-1.18l175,1.1Z"/>
        <path class="cls-53" d="M245,998.57c-39.51,0-87.35,2.89-125.77.08-2.36-.17-3.33-1.03-4.23-1.18l130,1.1Z"/>
        <path class="cls-93" d="M342.5,911.73c-42.89-.22-85.86.29-128.75,0,1.3-1.82,4.74-1.1,6.86-1.12,34.83-.38,89.46-3.44,121.89,1.12Z"/>
        <path class="cls-64" d="M636.25,15.84l-126.25,1.1c1.26-.54,2.15-1.69,4.24-1.17,40.67.11,81.36.11,122.01.07Z"/>
        <path class="cls-73" d="M660,799.61c-36.06-2.96-77.15,2.21-113.75,0h113.75Z"/>
        <path class="cls-35" d="M685,998.57c-.87,2.51-3.22,2.14-5.56,2.26-17.65.89-42.47-2.36-58.75-.01-3.3.48-5.01,2.77-8.19,3.24,3.61-2.69,2.3-3.8,8.75-4.4,12.87-1.04,25.79-1.41,38.75-1.1,8.3-.19,16.7.01,25,0Z"/>
        <path class="cls-87" d="M278.75,800.71c-25.18,0-50.45.29-75.64.02-2.12-.02-5.56.7-6.86-1.12,25.19.07,50.44-.25,75.64-.02,2.11.02,5.56-.7,6.86,1.12Z"/>
        <path class="cls-87" d="M548.75,807.3c-11.37,7.19-20.91,16.82-31.25,25.28-.03-2.15,1.68-3.06,3.1-4.41,3.56-3.41,22.69-20.78,25.69-21.56,1.12-.73,2.33.69,2.46.69Z"/>
        <path class="cls-78" d="M710,1007.37c-16.64,0-33.36-.13-50,0h50Z"/>
        <path class="cls-78" d="M660,998.57c-12,.27-26.68-.01-38.75,1.1,12.32-2.52,26.08-.42,38.75-1.1Z"/>
        <path class="cls-92" d="M1421.25,1006.27c4.55-3.93,9.3-8.08,13.75-12.09-1.43,4.13-6.54,7.4-10,10.44-.58.51-3.22,3.84-3.75,1.65Z"/>
        <path class="cls-90" d="M1093.75,19.13c-7.58,0-16.66.93-23.75-1.1,7.58,0,16.66-.93,23.75,1.1Z"/>
        <path class="cls-19" d="M623.75,491.82c-3.81,3.15-7.36,6.68-11.25,9.89,1.38-3.86,6.8-8.65,11.25-9.89Z"/>
        <path class="cls-51" d="M550,298.35c-3.45,2.18-8.38.78-12.5,1.1,2.97-2.34,8.57-.63,12.5-1.1Z"/>
        <path class="cls-9" d="M1437.5,206.03c.27.28-.16,2.38,0,3.27h-8.75c-1.14-4.01,7.59-4.47,8.74-3.27Z"/>
        <rect class="cls-45" x="340" y="244.48" width="150" height="1.1"/>
        <path class="cls-75" d="M133.74,111.48l-12.49,1.08c2.62-3.45,8.81-1.1,12.49-1.08Z"/>
      </g>
    </g>
  </g>
</svg>